<?xml version="1.0" standalone="no"?>
<!DOCTYPE svg PUBLIC "-//W3C//DTD SVG 20010904//EN"
 "http://www.w3.org/TR/2001/REC-SVG-20010904/DTD/svg10.dtd">
<svg version="1.0" xmlns="http://www.w3.org/2000/svg"
 width="512.000000pt" height="512.000000pt" viewBox="0 0 512.000000 512.000000"
 preserveAspectRatio="xMidYMid meet">
<metadata>
Created by potrace 1.11, written by Peter Selinger 2001-2013
</metadata>
<g transform="translate(0.000000,512.000000) scale(0.100000,-0.100000)"
fill="#000000" stroke="none">
<path d="M0 2560 l0 -2560 2560 0 2560 0 0 2560 0 2560 -2560 0 -2560 0 0
-2560z m1670 1534 c107 -9 197 -18 199 -20 2 -2 -1 -70 -8 -151 -19 -240 -31
-461 -31 -565 l0 -96 414 -4 c228 -1 417 -6 420 -9 5 -5 -23 -285 -40 -389
l-5 -36 -400 4 -399 4 1 -258 c1 -143 4 -342 8 -442 l6 -184 -70 6 c-38 3
-149 11 -245 17 -96 6 -177 13 -178 14 -6 5 -21 495 -22 668 l0 147 -37 -5
c-50 -7 -573 -35 -650 -35 l-61 0 -6 118 c-3 64 -9 161 -12 215 l-6 97 78 0
c206 0 685 35 695 51 3 6 9 92 13 192 7 203 33 604 42 655 5 34 5 34 52 28 26
-3 135 -13 242 -22z m1900 -980 c107 -9 197 -18 199 -20 2 -2 -1 -70 -8 -151
-19 -240 -31 -461 -31 -565 l0 -96 414 -4 c228 -1 417 -6 420 -9 5 -5 -23
-285 -40 -389 l-5 -36 -400 4 -399 4 1 -258 c1 -143 4 -342 8 -442 l6 -184
-70 6 c-38 3 -149 11 -245 17 -96 6 -177 13 -178 14 -6 5 -21 495 -22 668 l0
147 -37 -5 c-50 -7 -573 -35 -650 -35 l-61 0 -6 118 c-3 64 -9 161 -12 215
l-6 97 78 0 c206 0 685 35 695 51 3 6 9 92 13 192 7 203 33 604 42 655 5 34 5
34 52 28 26 -3 135 -13 242 -22z"/>
</g>
</svg>
